<?xml version="1.0" encoding="utf-8"?>
<!-- Generator: Adobe Illustrator 16.0.0, SVG Export Plug-In . SVG Version: 6.00 Build 0)  -->
<!DOCTYPE svg PUBLIC "-//W3C//DTD SVG 1.1//EN" "http://www.w3.org/Graphics/SVG/1.1/DTD/svg11.dtd">
<svg version="1.1" id="Layer_1" xmlns="http://www.w3.org/2000/svg" xmlns:xlink="http://www.w3.org/1999/xlink" x="0px" y="0px"
	 width="240px" height="240px" viewBox="0 0 240 240" enable-background="new 0 0 240 240" xml:space="preserve">
<g>
	<path fill-rule="evenodd" clip-rule="evenodd" fill="#181616" d="M120.609,3.238C54.314,3.238,0.555,56.985,0.555,123.291
		c0,53.045,34.399,98.044,82.101,113.921c5.999,1.11,8.203-2.605,8.203-5.777c0-2.862-0.111-12.32-0.163-22.351
		c-33.399,7.262-40.446-14.165-40.446-14.165c-5.461-13.877-13.33-17.566-13.33-17.566c-10.894-7.451,0.821-7.3,0.821-7.3
		c12.054,0.847,18.403,12.375,18.403,12.375c10.707,18.351,28.085,13.047,34.937,9.979c1.078-7.758,4.188-13.059,7.623-16.056
		c-26.666-3.033-54.699-13.33-54.699-59.331c0-13.107,4.691-23.817,12.371-32.224c-1.246-3.025-5.356-15.235,1.163-31.772
		c0,0,10.082-3.225,33.022,12.308c9.577-2.661,19.847-3.995,30.05-4.041c10.202,0.046,20.48,1.38,30.075,4.041
		c22.917-15.533,32.981-12.308,32.981-12.308c6.534,16.538,2.427,28.748,1.18,31.772c7.696,8.407,12.355,19.117,12.355,32.224
		c0,46.113-28.085,56.262-54.818,59.237c4.306,3.724,8.142,11.031,8.142,22.229c0,16.064-0.14,28.994-0.14,32.947
		c0,3.195,2.163,6.938,8.248,5.762c47.674-15.893,82.03-60.88,82.03-113.905C240.662,56.985,186.911,3.238,120.609,3.238z"/>
	<path fill="#181616" d="M46.026,175.609c-0.264,0.598-1.204,0.776-2.058,0.365c-0.872-0.393-1.359-1.204-1.078-1.802
		c0.258-0.613,1.198-0.784,2.068-0.377C45.83,174.188,46.327,175.012,46.026,175.609L46.026,175.609z M44.548,174.515"/>
	<path fill="#181616" d="M50.889,181.034c-0.573,0.528-1.693,0.283-2.452-0.556c-0.786-0.839-0.932-1.957-0.352-2.496
		c0.59-0.528,1.676-0.28,2.462,0.555C51.333,179.384,51.487,180.494,50.889,181.034L50.889,181.034z M49.744,179.803"/>
	<path fill="#181616" d="M55.622,187.945c-0.735,0.513-1.939,0.035-2.683-1.032c-0.736-1.068-0.736-2.35,0.017-2.862
		c0.744-0.513,1.93-0.05,2.683,1.006C56.374,186.144,56.374,187.426,55.622,187.945L55.622,187.945z M55.622,187.945"/>
	<path fill="#181616" d="M62.107,194.628c-0.658,0.727-2.06,0.528-3.085-0.462c-1.05-0.967-1.342-2.342-0.684-3.067
		c0.668-0.727,2.078-0.521,3.11,0.462C62.491,192.527,62.808,193.91,62.107,194.628L62.107,194.628z M62.107,194.628"/>
	<path fill="#181616" d="M71.053,198.507c-0.292,0.94-1.641,1.367-3,0.967c-1.359-0.411-2.247-1.514-1.973-2.461
		c0.281-0.948,1.639-1.395,3.007-0.968C70.445,196.457,71.334,197.548,71.053,198.507L71.053,198.507z M71.053,198.507"/>
	<path fill="#181616" d="M80.879,199.226c0.033,0.99-1.12,1.81-2.547,1.829c-1.435,0.03-2.598-0.77-2.613-1.744
		c0-1.001,1.128-1.813,2.563-1.836C79.708,197.447,80.879,198.243,80.879,199.226L80.879,199.226z M80.879,199.226"/>
	<path fill="#181616" d="M90.021,197.668c0.171,0.968-0.821,1.957-2.238,2.222c-1.394,0.256-2.683-0.342-2.862-1.297
		c-0.173-0.99,0.837-1.984,2.229-2.24C88.569,196.107,89.841,196.687,90.021,197.668L90.021,197.668z M90.021,197.668"/>
</g>
</svg>
